<svg id="Layer_1" data-name="Layer 1" xmlns="http://www.w3.org/2000/svg" viewBox="0 0 308.83 384"><path d="M1430.83,528c2.92,1.85,3.81,4.49,3.78,7.92-.15,13.5-.11,27,0,40.5a31.45,31.45,0,0,1-7.52,21c-2.73,3.25-5.29,6.64-8.09,9.83a22.21,22.21,0,0,0-5.5,15.45q.15,83.25.06,166.49c0,1.25.07,2.51,0,3.75-.36,3.4-2.88,5.74-5.9,5.56s-5.13-2.41-5.24-5.75c-.11-3.59,0-7.19,0-11H1158.47v4.87c0,10.75,0,21.5,0,32.25a29.84,29.84,0,0,1-6.8,19.38c-3.2,4-6.46,7.94-9.69,11.91a19.48,19.48,0,0,0-4.42,14.9H1423.1a18.63,18.63,0,0,0-4.21-14.71c-3.35-4.2-6.83-8.29-10.15-12.51a28.52,28.52,0,0,1-6.42-18c0-3.61,2-6,5.16-6.14a5.34,5.34,0,0,1,5.92,5.41A20.6,20.6,0,0,0,1420,833.8c11.63,11.32,16.2,24.85,14.75,41-.87,9.67-.27,19.49-.1,29.23.06,3.44-.87,6.07-3.78,7.93h-3.74c-8.8-4.52-17.59-9.07-26.41-13.54a3.07,3.07,0,0,0-2.37-.23c-8.9,4.53-17.75,9.16-26.61,13.77H1368c-8.73-4.46-17.45-9-26.23-13.32a4.38,4.38,0,0,0-3.38-.17c-8.88,4.41-17.7,9-26.53,13.49h-3.74c-8.83-4.57-17.65-9.15-26.51-13.66a3,3,0,0,0-2.38,0c-8.86,4.5-17.67,9.08-26.5,13.64h-3.74c-8.72-4.48-17.41-9-26.18-13.36a4.76,4.76,0,0,0-3.72.08c-8.79,4.34-17.51,8.83-26.24,13.28h-3.75c-8.8-4.59-17.58-9.19-26.42-13.71a3,3,0,0,0-2.39.12c-8.88,4.48-17.73,9.05-26.58,13.59h-3.74c-2.91-1.85-3.84-4.48-3.78-7.92.17-9.49.13-19,0-28.49-.21-24-.26-24,15.14-42.26a24.59,24.59,0,0,0,6-16.79c-.12-61.11,0-122.22-.09-183.33,0-20.74,1.69-17.27-11.86-33.74-.56-.68-1.08-1.38-1.65-2a31.17,31.17,0,0,1-7.53-21c.07-13.5.11-27,0-40.49,0-3.43.85-6.08,3.78-7.92h3.74c8.85,4.54,17.7,9.1,26.58,13.59a3.07,3.07,0,0,0,2.39.12c8.83-4.52,17.62-9.12,26.42-13.71h3.75c8.73,4.45,17.45,8.94,26.25,13.28a4.78,4.78,0,0,0,3.71.08c8.77-4.35,17.46-8.88,26.18-13.36h3.74c8.83,4.56,17.64,9.14,26.5,13.64a3,3,0,0,0,2.38,0c8.87-4.51,17.68-9.09,26.51-13.66h3.74c7.26,3.73,14.69,7.18,21.72,11.3,4.46,2.61,8,2.72,12.52,0,6.83-4.14,14.08-7.58,21.15-11.32h4.5c8.86,4.61,17.71,9.23,26.61,13.77a3.12,3.12,0,0,0,2.37-.23c8.82-4.47,17.61-9,26.41-13.54ZM1158.47,657.94h4.39c10.47,0,21,0,31.43,0,4.6,0,7.33,2.2,7.29,5.71s-2.65,5.51-7.39,5.52q-15.7,0-31.43,0h-4V770H1402V669.19h-176.1a37.08,37.08,0,0,1-4.48-.11,5,5,0,0,1-4.81-4.87c-.29-3,1.08-5.14,4-5.89a19.83,19.83,0,0,1,4.82-.36q85.89,0,171.77,0h5.07v-4.56c0-10.5.1-21,0-31.49a31.13,31.13,0,0,1,7.47-21c3.12-3.74,6.22-7.5,9.24-11.32a18.31,18.31,0,0,0,4.12-14.58H1137.59a19.33,19.33,0,0,0,4.46,14.93q4.62,5.65,9.24,11.31a30.62,30.62,0,0,1,7.2,20.38c-.1,8.74,0,17.49,0,26.24Zm-20.93-94.84H1423V542.94c-6.25,3.15-12.24,5.92-18,9.13-4,2.23-7.39,2.41-11.5.09-7-4-14.36-7.49-21.68-10.95a6.17,6.17,0,0,0-4.7,0c-7.31,3.47-14.6,7-21.69,10.93-3.89,2.14-7.17,2.31-11.15.09-7.06-4-14.37-7.47-21.69-10.91a6.63,6.63,0,0,0-5,0C1299.75,545,1292,549,1284.25,553a7.69,7.69,0,0,1-7.77,0c-7.62-4-15.37-7.71-23-11.7a5.18,5.18,0,0,0-5.48,0c-7.72,4-15.58,7.85-23.33,11.85a7.4,7.4,0,0,1-7.42,0c-7.63-4-15.37-7.71-23-11.69a5.48,5.48,0,0,0-5.83-.08c-6.79,3.66-13.88,6.79-20.6,10.58-4.38,2.48-8.14,2.57-12.52,0-5.65-3.29-11.65-6-17.78-9.07ZM1423.2,876.91H1137.71V897.1c6.81-3.43,13.31-6.55,19.66-10a8.19,8.19,0,0,1,8.45,0c7.39,3.88,14.94,7.45,22.29,11.39a6.14,6.14,0,0,0,6.52-.09c7.38-3.9,14.92-7.49,22.3-11.39a7.94,7.94,0,0,1,8.1,0c7.62,4,15.38,7.7,23,11.7a5.2,5.2,0,0,0,5.49-.07c7.5-3.94,15.15-7.58,22.64-11.54a8.24,8.24,0,0,1,8.45,0c7.6,4,15.28,7.88,23,11.55a6.63,6.63,0,0,0,5,0q11.49-5.43,22.71-11.4a8.53,8.53,0,0,1,8.79-.06q11.38,6,23,11.59a6.17,6.17,0,0,0,4.7,0c7.1-3.35,14.19-6.75,21-10.62,4.38-2.48,8.12-2.64,12.52-.09,5.66,3.28,11.66,6,17.79,9.07Z" transform="translate(-1126.14 -528)"/></svg>